<?xml version="1.0" encoding="UTF-8" standalone="no"?>
<svg width="800" height="500" xmlns="http://www.w3.org/2000/svg">
  <!-- Background -->
  <rect width="800" height="500" fill="#f8f9fa" rx="10" ry="10" />
  
  <!-- Title -->
  <text x="400" y="40" font-family="Arial" font-size="24" font-weight="bold" text-anchor="middle" fill="#333">LoRA: Low-Rank Adaptation Architecture</text>
  
  <!-- Input -->
  <rect x="50" y="120" width="100" height="60" fill="#e3f2fd" stroke="#1565c0" stroke-width="2" rx="5" ry="5" />
  <text x="100" y="155" font-family="Arial" font-size="18" text-anchor="middle" fill="#333">Input x</text>
  
  <!-- Arrows -->
  <line x1="150" y1="150" x2="200" y2="150" stroke="#333" stroke-width="2" marker-end="url(#arrow)" />
  <line x1="150" y1="150" x2="200" y2="250" stroke="#333" stroke-width="2" marker-end="url(#arrow)" />
  
  <!-- Frozen Weights -->
  <rect x="200" y="120" width="140" height="60" fill="#e8f5e9" stroke="#2e7d32" stroke-width="2" rx="5" ry="5" />
  <text x="270" y="155" font-family="Arial" font-size="18" text-anchor="middle" fill="#333">W (Frozen)</text>
  <text x="270" y="175" font-family="Arial" font-size="12" text-anchor="middle" fill="#555">Pre-trained weights</text>
  
  <!-- LoRA A -->
  <rect x="200" y="220" width="100" height="60" fill="#fff3e0" stroke="#e65100" stroke-width="2" rx="5" ry="5" />
  <text x="250" y="255" font-family="Arial" font-size="18" text-anchor="middle" fill="#333">A</text>
  <text x="250" y="275" font-family="Arial" font-size="12" text-anchor="middle" fill="#555">d×r matrix</text>
  
  <!-- LoRA B -->
  <rect x="350" y="220" width="100" height="60" fill="#fff3e0" stroke="#e65100" stroke-width="2" rx="5" ry="5" />
  <text x="400" y="255" font-family="Arial" font-size="18" text-anchor="middle" fill="#333">B</text>
  <text x="400" y="275" font-family="Arial" font-size="12" text-anchor="middle" fill="#555">r×k matrix</text>
  
  <!-- Trainable Indicator -->
  <rect x="180" y="320" width="290" height="30" fill="none" stroke="#e65100" stroke-width="2" stroke-dasharray="5,5" rx="5" ry="5" />
  <text x="325" y="340" font-family="Arial" font-size="14" text-anchor="middle" fill="#e65100">Trainable low-rank matrices</text>
  
  <!-- Arrows -->
  <line x1="300" y1="250" x2="350" y2="250" stroke="#e65100" stroke-width="2" marker-end="url(#arrow)" />
  <line x1="450" y1="250" x2="500" y2="250" stroke="#e65100" stroke-width="2" marker-end="url(#arrow)" />
  <line x1="340" y1="150" x2="500" y2="150" stroke="#2e7d32" stroke-width="2" marker-end="url(#arrow)" />
  
  <!-- Scaling Factor -->
  <circle cx="500" cy="250" r="25" fill="#f3e5f5" stroke="#6a1b9a" stroke-width="2" />
  <text x="500" y="255" font-family="Arial" font-size="14" text-anchor="middle" fill="#333">α/r</text>
  
  <!-- Arrow to addition -->
  <line x1="525" y1="250" x2="575" y2="200" stroke="#e65100" stroke-width="2" marker-end="url(#arrow)" />
  
  <!-- Addition -->
  <circle cx="600" cy="180" r="25" fill="#ffebee" stroke="#c62828" stroke-width="2" />
  <text x="600" y="185" font-family="Arial" font-size="24" font-weight="bold" text-anchor="middle" fill="#333">+</text>
  
  <!-- Output -->
  <rect x="650" y="150" width="100" height="60" fill="#e8eaf6" stroke="#283593" stroke-width="2" rx="5" ry="5" />
  <text x="700" y="185" font-family="Arial" font-size="18" text-anchor="middle" fill="#333">Output y</text>
  
  <!-- Arrows -->
  <line x1="625" y1="180" x2="650" y2="180" stroke="#333" stroke-width="2" marker-end="url(#arrow)" />
  
  <!-- Formula -->
  <rect x="50" y="400" width="700" height="60" fill="#e0f7fa" stroke="#006064" stroke-width="2" rx="10" ry="10" />
  <text x="400" y="435" font-family="Arial" font-size="18" text-anchor="middle" fill="#333">y = xW + x(AB) × α/r = x(W + AB × α/r)</text>
  
  <!-- Arrow marker definition -->
  <defs>
    <marker id="arrow" markerWidth="10" markerHeight="10" refX="9" refY="3" orient="auto" markerUnits="strokeWidth">
      <path d="M0,0 L0,6 L9,3 z" fill="#333" />
    </marker>
  </defs>
  
  <!-- Parameters info -->
  <text x="50" y="490" font-family="Arial" font-size="14" fill="#555">W ∈ ℝᵈˣᵏ (frozen)    A ∈ ℝᵈˣʳ (trainable)    B ∈ ℝʳˣᵏ (trainable)    r ≪ min(d,k)    α: scaling factor</text>
</svg> 