<?xml version="1.0" encoding="UTF-8" standalone="no"?>
<svg width="800" height="500" xmlns="http://www.w3.org/2000/svg">
  <!-- Background -->
  <rect width="800" height="500" fill="#f8f9fa" rx="10" ry="10" />
  
  <!-- Title -->
  <text x="400" y="40" font-family="Arial" font-size="24" font-weight="bold" text-anchor="middle" fill="#333">Memory Requirements Comparison</text>
  
  <!-- Y-axis label -->
  <text x="50" y="250" font-family="Arial" font-size="16" text-anchor="middle" fill="#333" transform="rotate(-90, 50, 250)">GPU Memory (GB)</text>
  
  <!-- X-axis label -->
  <text x="400" y="470" font-family="Arial" font-size="16" text-anchor="middle" fill="#333">Model Size</text>
  
  <!-- X-axis -->
  <line x1="100" y1="400" x2="700" y2="400" stroke="#333" stroke-width="2" />
  
  <!-- Y-axis -->
  <line x1="100" y1="100" x2="100" y2="400" stroke="#333" stroke-width="2" />
  
  <!-- X-axis ticks and labels -->
  <line x1="175" y1="400" x2="175" y2="405" stroke="#333" stroke-width="2" />
  <text x="175" y="425" font-family="Arial" font-size="14" text-anchor="middle" fill="#333">BERT (110M)</text>
  
  <line x1="325" y1="400" x2="325" y2="405" stroke="#333" stroke-width="2" />
  <text x="325" y="425" font-family="Arial" font-size="14" text-anchor="middle" fill="#333">RoBERTa (355M)</text>
  
  <line x1="475" y1="400" x2="475" y2="405" stroke="#333" stroke-width="2" />
  <text x="475" y="425" font-family="Arial" font-size="14" text-anchor="middle" fill="#333">LLaMA (7B)</text>
  
  <line x1="625" y1="400" x2="625" y2="405" stroke="#333" stroke-width="2" />
  <text x="625" y="425" font-family="Arial" font-size="14" text-anchor="middle" fill="#333">LLaMA (65B)</text>
  
  <!-- Y-axis ticks and labels -->
  <line x1="95" y1="370" x2="100" y2="370" stroke="#333" stroke-width="2" />
  <text x="85" y="375" font-family="Arial" font-size="14" text-anchor="end" fill="#333">0</text>
  
  <line x1="95" y1="340" x2="100" y2="340" stroke="#333" stroke-width="2" />
  <text x="85" y="345" font-family="Arial" font-size="14" text-anchor="end" fill="#333">10</text>
  
  <line x1="95" y1="310" x2="100" y2="310" stroke="#333" stroke-width="2" />
  <text x="85" y="315" font-family="Arial" font-size="14" text-anchor="end" fill="#333">20</text>
  
  <line x1="95" y1="280" x2="100" y2="280" stroke="#333" stroke-width="2" />
  <text x="85" y="285" font-family="Arial" font-size="14" text-anchor="end" fill="#333">30</text>
  
  <line x1="95" y1="250" x2="100" y2="250" stroke="#333" stroke-width="2" />
  <text x="85" y="255" font-family="Arial" font-size="14" text-anchor="end" fill="#333">40</text>
  
  <line x1="95" y1="220" x2="100" y2="220" stroke="#333" stroke-width="2" />
  <text x="85" y="225" font-family="Arial" font-size="14" text-anchor="end" fill="#333">50</text>
  
  <line x1="95" y1="190" x2="100" y2="190" stroke="#333" stroke-width="2" />
  <text x="85" y="195" font-family="Arial" font-size="14" text-anchor="end" fill="#333">60</text>
  
  <line x1="95" y1="160" x2="100" y2="160" stroke="#333" stroke-width="2" />
  <text x="85" y="165" font-family="Arial" font-size="14" text-anchor="end" fill="#333">70</text>
  
  <line x1="95" y1="130" x2="100" y2="130" stroke="#333" stroke-width="2" />
  <text x="85" y="135" font-family="Arial" font-size="14" text-anchor="end" fill="#333">80</text>
  
  <line x1="95" y1="100" x2="100" y2="100" stroke="#333" stroke-width="2" />
  <text x="85" y="105" font-family="Arial" font-size="14" text-anchor="end" fill="#333">90</text>
  
  <!-- BERT Bars -->
  <!-- Full Fine-tuning -->
  <rect x="145" y="360" width="20" height="10" fill="#1565c0" />
  <text x="155" y="355" font-family="Arial" font-size="10" text-anchor="middle" fill="#333">3.7GB</text>
  
  <!-- LoRA -->
  <rect x="175" y="366" width="20" height="4" fill="#00897b" />
  <text x="185" y="361" font-family="Arial" font-size="10" text-anchor="middle" fill="#333">1.2GB</text>
  
  <!-- QLoRA -->
  <rect x="205" y="368" width="20" height="2" fill="#e65100" />
  <text x="215" y="363" font-family="Arial" font-size="10" text-anchor="middle" fill="#333">0.7GB</text>
  
  <!-- RoBERTa Bars -->
  <!-- Full Fine-tuning -->
  <rect x="295" y="340" width="20" height="30" fill="#1565c0" />
  <text x="305" y="335" font-family="Arial" font-size="10" text-anchor="middle" fill="#333">10GB</text>
  
  <!-- LoRA -->
  <rect x="325" y="360" width="20" height="10" fill="#00897b" />
  <text x="335" y="355" font-family="Arial" font-size="10" text-anchor="middle" fill="#333">3.7GB</text>
  
  <!-- QLoRA -->
  <rect x="355" y="367" width="20" height="3" fill="#e65100" />
  <text x="365" y="362" font-family="Arial" font-size="10" text-anchor="middle" fill="#333">1.1GB</text>
  
  <!-- LLaMA-7B Bars -->
  <!-- Full Fine-tuning -->
  <rect x="445" y="280" width="20" height="90" fill="#1565c0" />
  <text x="455" y="275" font-family="Arial" font-size="10" text-anchor="middle" fill="#333">28GB</text>
  
  <!-- LoRA -->
  <rect x="475" y="324" width="20" height="46" fill="#00897b" />
  <text x="485" y="319" font-family="Arial" font-size="10" text-anchor="middle" fill="#333">14GB</text>
  
  <!-- QLoRA -->
  <rect x="505" y="355" width="20" height="15" fill="#e65100" />
  <text x="515" y="350" font-family="Arial" font-size="10" text-anchor="middle" fill="#333">5GB</text>
  
  <!-- LLaMA-65B Bars -->
  <!-- Full Fine-tuning -->
  <rect x="595" y="130" width="20" height="240" fill="#1565c0" />
  <text x="605" y="125" font-family="Arial" font-size="10" text-anchor="middle" fill="#333">240GB</text>
  
  <!-- LoRA -->
  <rect x="625" y="250" width="20" height="120" fill="#00897b" />
  <text x="635" y="245" font-family="Arial" font-size="10" text-anchor="middle" fill="#333">120GB</text>
  
  <!-- QLoRA -->
  <rect x="655" y="310" width="20" height="60" fill="#e65100" />
  <text x="665" y="305" font-family="Arial" font-size="10" text-anchor="middle" fill="#333">40GB</text>
  
  <!-- Legend -->
  <rect x="300" y="60" width="20" height="10" fill="#1565c0" />
  <text x="325" y="70" font-family="Arial" font-size="14" text-anchor="start" fill="#333">Full Fine-tuning</text>
  
  <rect x="450" y="60" width="20" height="10" fill="#00897b" />
  <text x="475" y="70" font-family="Arial" font-size="14" text-anchor="start" fill="#333">LoRA (r=8)</text>
  
  <rect x="580" y="60" width="20" height="10" fill="#e65100" />
  <text x="605" y="70" font-family="Arial" font-size="14" text-anchor="start" fill="#333">QLoRA (4-bit)</text>
</svg> 